# xmcd
#
# Track frame offsets:
#	150
#	19637
#	40425
#	57525
#	83587
#	107875
#	126387
#	145212
#
# Disc length: 2199 seconds
#
# Revision: 0
# Processed by: cddbd v1.5.2PL0 Copyright (c) Steve Scherf et al.
# Submitted via: audiograbber 1.83.01
#
DISCID=6e089508
DTITLE=Bachman-Turner Overdrive - Bachman-Turner-Overdrive [CD-R]
DYEAR=1984
DGENRE=Rock
TTITLE0=For The Weekend
TTITLE1=Just Look At Me Now
TTITLE2=My Sugaree
TTITLE3=City's Still Growin'
TTITLE4=Another Fool
TTITLE5=Lost In A Fantasy
TTITLE6=Toledo
TTITLE7=Service With A Smile
EXTD=
EXTT0=
EXTT1=
EXTT2=
EXTT3=
EXTT4=
EXTT5=
EXTT6=
EXTT7=
PLAYORDER=
